<svg version="1.2" xmlns="http://www.w3.org/2000/svg" viewBox="0 0 8320 8320" width="8320" height="8320"><defs><clipPath clipPathUnits="userSpaceOnUse" id="cp1"><path d="m7580 1860v3880h-3900v-3880z"/></clipPath></defs><style>.a{display:none;fill:#fff}.b{fill:#838383}.c{fill:#ffa552}.d{fill:#fbde9c}.e{fill:#b95624}.f{fill:#371c29}.g{fill:#c3d5b0}.h{fill:#ff5c1b}.i{fill:#fc1f7e}.j{fill:#000965}.k{fill:#4c3ee1}.l{fill:#0d7803}</style><path fill-rule="evenodd" class="a" d="m8320 0v8320h-8320v-8320z"/><g clip-path="url(#cp1)"><path class="b" d="m4209.6 2370.1l385.3 359.2-0.1 313.5-553-517.7z"/><path class="b" d="m4739.3 3373.1l163.4 170.8h-163.4z"/><path class="b" d="m5013.3 3187h-275.9v-288.5z"/><path class="b" d="m4761.8 2737.6l362.7-375.2v733.8z"/><path class="b" d="m5239.9 4102.9c0.7-107.1 0-351.1 0-351.1l28.7-29.5-403.6-399.7 298.5-5.9 413.1 425z"/><path class="b" d="m5672.4 2577.1l-317.2-330.1h226.4c0 0 0.2 0.1 0.3 0.1l90.6 88.5 98.8-88.6h217z"/><path class="b" d="m5680.3 3133.9l-432.2-437.6v-350.4l415.8 421.1c10.1 0.1 432.7-421.1 432.7-421.1v350.4z"/><path class="b" d="m5672.5 3641.4l-432.6-433.8v-329.9l431.3 407.6 425.4-419.9v350.4z"/><path class="b" d="m5248.1 4826.8v63.7c-2.3-15.1-2-38 0-63.7z"/><path class="b" d="m5758.6 3735.3l416.3-432.9h333.6l-396.3 441.2c0 0 416.1 425.8 414 441.1h-310.2c0 0-457.4-441.9-457.4-449.4z"/><path class="b" d="m6220.3 4696l8-391.9 371 8.3z"/><path class="b" d="m6155.8 4988.1l546.2-526v288.2l-559.7 544.9z"/><path class="c" d="m6096.6 2865.4v350.4l-424.1 425.6-432.6-433.8v-329.9l431.3 407.6z"/><path class="d" d="m6526.2 4184.8l-310.1-0.1c0 0-457.5-441.9-457.5-449.4l416.3-432.9h333.6l-396.3 441.2c0 0 416.1 425.8 414 441.1z"/><path class="e" d="m6096.6 2345.9v350.4l-416.3 437.6-432.2-437.6v-350.4l415.8 421.1c10.1 0.1 432.7-421.1 432.7-421.1z"/><path class="c" d="m6096.6 4271.3v333.9l-425.4-419.8-419 428.1 0.7-362.2 422.2-420z"/><path class="e" d="m6113.2 4823.7l-184.7 160.5-264.3-271.6-321.4 331.1-94.7 97.5v-314.4c1-13 2.5-26.6 4.3-40.3l418.7-427.1z"/><path  d="m5252.4 4786.5c-1.8 13.7-3.3 27.3-4.3 40.3v-36z"/><path class="f" d="m7021.1 3317.9l-397.2 417.5 262.5 282.2-150.4 167.1-449.3-449.9 415.4-432.4h333.6z"/><path class="c" d="m7580 3302.4l-182.3 185.4-403.5 410-163.2-163 363.3-378.3h0.1l51.9-54.1z"/><path class="c" d="m4594.9 2729.3v313.5l-553.1-517.7 167.8-155z"/><path class="e" d="m4814 1949.8l-90.1-89.8-124.3 122.3-240.5 236.9 357.7 357.8c92.1-81.6 366.4-359 366.4-359zm-96 420.3l-153.4-152 159.6-150.4 153.1 150.4z"/><path class="g" d="m3885.3 2522.9l-33.9-33.8-171.4 168.8 101.6 101.6 66.4 66.4c43.2-38.3 172.1-168.5 172.1-168.5zm-36.7 205.8l-72.1-71.4 75-70.7 71.9 70.7z"/><path class="e" d="m6766.7 2669.5v-47.8l-240.5-2v237.7c57.7 3.5 240.8 2.5 240.8 2.5zm-171.4 119.6l-0.5-101.4 103 3 0.9 100.9z"/><path class="f" d="m4044.8 2788.1l-329.7 324.6-35.1 34.6 17.3 17.3 340.4 340.5c92-81.6 366.4-358.9 366.4-358.9zm-6 510l-153.4-152 159.6-150.4 153.1 150.4z"/><path class="g" d="m5683.4 4968.3l-282.5 278.1-82.3 81.1 204.7 204.8 153 153.1c92-81.6 366.4-359 366.4-359zm-6 510.1l-153.4-152 159.6-150.5 153.1 150.5z"/><path class="g" d="m5239.9 4102.9c0.7-107.1 0-351.1 0-351.1l28.7-29.5-403.6-399.7 298.5-5.9 413.1 425z"/><path class="g" d="m6867.7 3146.6l-644.2-0.1-3.2-685.2 205.8 226.8v259.8l272.4 3.3 64 73.9 99.9 115.3z"/><path class="d" d="m5124.5 2362.4v733.8l-362.8-358.6z"/><path class="g" d="m4594.9 3144.5v496.9l-70.6-62.6-203.5-180.3z"/><path class="f" d="m5988.3 2247l-315.9 330.1-317.2-330.1h226.6l0.1 0.1 90.6 88.5 98.7-88.6z"/><path class="g" d="m6599.3 4312.4l-379 383.6 8-391.9z"/><path class="c" d="m5013.3 3187h-275.9v-288.5z"/><path class="f" d="m4902.7 3543.9h-163.4v-170.8z"/><path class="e" d="m6186.5 5720.1l-116.2 8-171.4 11.9 268.6-295.3 12.3 178z"/><path class="f" d="m6702 4462.1v288.2l-559.7 544.9 13.5-307.1z"/></g><path class="f" d="m2068.4 4320q0 170.3-65 288.7-65.1 118.4-176.2 179.8-110.6 61.5-248.2 61.5-138.2 0-248.8-62-110.6-61.9-175.6-179.8-64.6-118.4-64.6-288.2 0-170.3 64.6-288.7 65-118.4 175.6-179.8 110.6-61.5 248.8-61.5 137.6 0 248.2 61.5 111.1 61.4 176.2 179.8 65 118.4 65 288.7zm-253.2 0q0-100.8-28.5-170.3-28.1-69.5-81.1-105.3-52.6-35.8-126.6-35.7-73.6-0.1-126.6 35.7-53.1 35.8-81.6 105.3-28.1 69.5-28.1 170.3 0 100.8 28.1 170.3 28.5 69.5 81.6 105.3 53 35.8 126.6 35.8 74 0 126.6-35.8 53-35.8 81.1-105.3 28.5-69.5 28.5-170.3z"/><path class="f" d="m2710.7 4113.4q-5-55.4-44.5-86.1-39-31.2-111.6-31.2-48.1 0-80.1 12.6-32 12.5-48 34.7-16.1 21.7-16.6 49.9-1 23.2 9.1 40.8 10.4 17.6 30 31.2 20 13.1 48 23.2 28.1 10.1 63.1 17.6l88.1 20.2q76 16.6 134.1 44.3 58.6 27.7 98.1 66 40 38.3 60.5 88.2 20.6 49.9 21.1 111.8-0.5 97.8-49.1 167.8-48.5 70-139.6 107.3-90.6 37.3-218.7 37.3-128.6 0-224.2-38.8-95.6-38.8-148.7-117.9-53-79.1-54.5-200h237.2q3 49.9 26.5 83.1 23.5 33.3 64.6 50.4 41.5 17.1 96.1 17.1 50 0 85.1-13.6 35.5-13.6 54.5-37.8 19-24.1 19.5-55.4-0.5-29.2-18-49.8-17.5-21.2-54-36.3-36.1-15.6-92.1-28.7l-107.1-25.2q-133.2-30.8-209.7-99.3-76.6-69-76.1-186.4-0.5-95.7 51-167.8 51.6-72 142.7-112.3 91.1-40.3 207.7-40.3 119.1 0 206.7 40.8 88.1 40.3 136.6 113.4 48.6 73 49.6 169.2z"/><path class="f" d="m3584.7 4113.4q-5-55.4-44.5-86.1-39-31.2-111.6-31.2-48.1 0-80.1 12.6-32 12.5-48 34.7-16 21.7-16.6 49.9-1 23.2 9.1 40.8 10.5 17.6 30 31.2 20 13.1 48 23.2 28.1 10.1 63.1 17.6l88.1 20.2q76 16.6 134.1 44.3 58.6 27.7 98.1 66 40 38.3 60.6 88.2 20.5 49.9 21 111.8-0.5 97.8-49.1 167.8-48.5 70-139.6 107.3-90.6 37.3-218.7 37.3-128.6 0-224.2-38.8-95.6-38.8-148.7-117.9-53-79.1-54.5-200h237.2q3 49.9 26.5 83.1 23.6 33.3 64.6 50.4 41.5 17.1 96.1 17.1 50 0 85.1-13.6 35.5-13.6 54.5-37.8 19-24.1 19.5-55.4-0.5-29.2-18-49.8-17.5-21.2-54-36.3-36.1-15.6-92.1-28.7l-107.1-25.2q-133.1-30.8-209.7-99.3-76.6-69-76.1-186.4-0.5-95.7 51.1-167.8 51.5-72 142.6-112.3 91.1-40.3 207.7-40.3 119.1 0 206.7 40.8 88.1 40.3 136.6 113.4 48.6 73 49.6 169.2z"/><path class="f" d="m4094.8 4835.9h-266.3l345.9-1031.8h329.8l345.8 1031.8h-266.3l-240.7-771.8h-8zm-35.5-406.1h556.5v189.4h-556.5z"/><filter id="f0"><feFlood flood-color="#b95624" flood-opacity="1" /><feBlend mode="normal" in2="SourceGraphic"/><feComposite in2="SourceAlpha" operator="in" /></filter><g filter="url(#f0)"><path class="h" d="m1276.2 5131.2q0 32.5-12.1 56-12.1 23.3-33.2 35.9-21 12.5-47.7 12.5-26.9 0-48-12.5-21-12.6-33.1-36-12.1-23.5-12.1-55.9 0-32.6 12.1-55.9 12.1-23.4 33.1-35.9 21.1-12.7 48-12.6 26.7-0.1 47.7 12.6 21.1 12.5 33.2 35.9 12.1 23.3 12.1 55.9zm-30.9 0q0-24.8-8.1-41.8-8.1-17.1-22.2-25.8-14.1-8.9-31.8-8.9-17.9 0-31.9 8.9-14.1 8.7-22.2 25.8-8.1 17-8.1 41.8 0 24.8 8.1 41.9 8.1 16.9 22.2 25.8 14 8.7 31.9 8.7 17.7 0 31.8-8.7 14.1-8.9 22.2-25.8 8.1-17.1 8.1-41.9z"/><path class="h" d="m1301.3 5290v-209.6h29.5v24.7h2.5q2.7-4.8 7.6-11.1 4.9-6.2 13.7-10.9 8.8-4.7 23.2-4.7 18.8 0 33.5 9.3 14.8 9.3 23.2 26.9 8.4 17.6 8.4 42.3 0 24.7-8.3 42.4-8.4 17.5-23 27.1-14.7 9.4-33.5 9.4-14.1 0-23.1-4.7-8.9-4.6-13.9-10.9-5.1-6.2-7.8-11.1h-1.8v80.9zm29.6-133.4q0 16.1 4.7 28.2 4.8 12.1 13.8 18.9 8.9 6.8 22 6.8 13.5 0 22.6-7.1 9-7.1 13.7-19.3 4.7-12.2 4.7-27.5 0-15.1-4.6-27.1-4.5-12-13.7-19-9.1-6.9-22.7-6.9-13.2 0-22.2 6.6-9 6.7-13.7 18.6-4.6 11.9-4.6 27.8z"/><path class="h" d="m1532.2 5235.9q-22.9 0-39.5-9.6-16.4-9.7-25.4-27.3-8.9-17.7-8.9-41.4 0-23.4 8.9-41.3 9-17.9 25-27.9 16.2-10 37.8-10 13.1 0 25.4 4.2 12.3 4.3 22.1 13.4 9.8 9.2 15.5 23.8 5.6 14.5 5.6 35.2v10.5h-123.2v-22.2h93.6q0.1-11.7-4.8-20.8-4.8-9.1-13.6-14.4-8.7-5.2-20.4-5.2-12.7 0-22.2 6.1-9.4 6.1-14.6 15.9-5 9.8-5 21.2v17.3q0 15.3 5.5 26 5.5 10.8 15.4 16.4 9.9 5.6 23.1 5.6 8.6 0 15.7-2.4 7-2.5 12.2-7.4 5.1-4.8 7.8-12l28.6 5.1q-3.4 12.4-12.3 21.7-8.8 9.3-22.1 14.4-13.2 5.1-30.2 5.1z"/><path class="h" d="m1651 5142.3v90.5h-30.2v-152.4h29v24.8h1.9q5.4-12.1 16.8-19.5 11.5-7.3 29-7.3 15.8 0 27.7 6.5 11.9 6.5 18.5 19.3 6.5 12.8 6.5 31.6v97h-30.1v-93.4q0-16.6-8.8-25.9-8.8-9.4-24.1-9.4-10.5 0-18.7 4.4-8.1 4.5-12.8 13.1-4.7 8.6-4.7 20.7z"/><path class="i" d="m1958.4 5082.9q-1.6-14.1-13.3-21.8-11.8-7.8-29.5-7.8-12.7 0-22 3.9-9.3 3.9-14.5 10.7-5 6.8-5 15.4 0 7.3 3.4 12.5 3.6 5.3 9.2 8.9 5.8 3.4 12.3 5.8 6.6 2.3 12.6 3.8l20.2 5.2q9.9 2.3 20.3 6.4 10.4 4.1 19.3 10.7 8.9 6.7 14.3 16.5 5.6 9.8 5.6 23.5 0 17.3-9.1 30.7-9 13.4-26.1 21.2-17.1 7.7-41.3 7.7-23.2 0-40.2-7.2-17-7.3-26.5-20.6-9.6-13.4-10.7-31.8h31.3q0.9 11.1 7.3 18.4 6.5 7.2 16.5 10.8 10.1 3.5 22.1 3.5 13.2 0 23.5-4.1 10.4-4.1 16.3-11.5 6-7.4 6-17.4 0-9-5.3-14.8-5.1-5.7-14-9.5-8.8-3.7-19.9-6.6l-24.4-6.6q-24.8-6.6-39.4-19.5-14.4-12.9-14.4-34.2 0-17.6 9.7-30.7 9.7-13.1 26.2-20.3 16.6-7.3 37.4-7.3 21 0 37 7.2 16.2 7.2 25.5 20 9.3 12.6 9.7 28.9z"/><path class="i" d="m2080.1 5235.9q-21.8 0-38.1-9.8-16.2-9.9-25.2-27.5-9-17.7-9-41.3 0-23.7 9-41.5 9-17.8 25.2-27.6 16.3-9.8 38.1-9.8 21.8 0 38 9.8 16.3 9.8 25.3 27.6 8.9 17.8 8.9 41.5 0 23.6-8.9 41.3-9 17.6-25.3 27.5-16.2 9.8-38 9.8zm0.1-24.9q14.1 0 23.4-7.4 9.3-7.3 13.7-19.5 4.6-12.2 4.6-26.9 0-14.6-4.6-26.8-4.4-12.3-13.7-19.8-9.3-7.4-23.4-7.4-14.3 0-23.6 7.4-9.3 7.5-13.9 19.8-4.4 12.2-4.4 26.8 0 14.7 4.4 26.9 4.6 12.2 13.9 19.5 9.3 7.4 23.6 7.4z"/><path class="i" d="m2272.9 5169.6v-89.3h30.3v152.5h-29.7v-26.4h-1.6q-5.4 12.2-17.2 20.4-11.7 8-29.2 8-14.9 0-26.4-6.4-11.4-6.6-18-19.4-6.4-12.8-6.4-31.7v-97h30.1v93.5q0 15.5 8.8 24.8 8.8 9.2 22.8 9.2 8.5 0 16.9-4.2 8.5-4.1 14-12.6 5.7-8.4 5.6-21.4z"/><path class="i" d="m2332.3 5232.8v-152.4h29.2v24.2h1.6q4.3-12.3 15-19.4 10.8-7.1 24.4-7.1 2.8 0 6.6 0.2 4 0.2 6.2 0.5v28.3q-1.8-0.4-6.5-1-4.6-0.7-9.2-0.7-10.7 0-19.1 4.4-8.3 4.4-13.1 12.2-4.9 7.8-4.9 17.7v93.1z"/><path class="i" d="m2489.8 5235.9q-22.5 0-38.8-10-16.1-10.1-24.8-27.9-8.7-17.8-8.7-40.7 0-23.2 8.9-41 8.9-17.9 25.1-27.9 16.1-10 38-10 17.7 0 31.5 6.4 13.8 6.4 22.3 17.9 8.6 11.5 10.2 26.9h-29.4q-2.4-10.7-11.1-18.5-8.6-7.7-23-7.7-12.6 0-22.1 6.5-9.4 6.5-14.6 18.5-5.3 11.9-5.3 28.2 0 16.7 5.2 28.8 5.1 12.1 14.5 18.7 9.5 6.7 22.3 6.7 8.6 0 15.6-3.1 7-3.2 11.8-9 4.8-5.9 6.7-14.1h29.4q-1.6 14.8-9.8 26.4-8.2 11.6-21.9 18.3-13.6 6.6-32 6.6z"/><path class="i" d="m2641.2 5235.9q-22.9 0-39.4-9.6-16.5-9.7-25.5-27.3-8.9-17.7-8.9-41.4 0-23.4 8.9-41.3 9-17.9 25.1-27.9 16.1-10 37.7-10 13.1 0 25.4 4.2 12.4 4.3 22.2 13.4 9.7 9.2 15.4 23.8 5.7 14.5 5.7 35.2v10.5h-123.3v-22.2h93.7q0-11.7-4.9-20.8-4.8-9.1-13.6-14.4-8.7-5.2-20.4-5.2-12.7 0-22.2 6.1-9.4 6.1-14.5 15.9-5.1 9.8-5.1 21.2v17.3q0 15.3 5.5 26 5.5 10.8 15.4 16.4 9.9 5.6 23.1 5.6 8.6 0 15.7-2.4 7-2.5 12.2-7.4 5.1-4.8 7.9-12l28.5 5.1q-3.4 12.4-12.3 21.7-8.8 9.3-22.1 14.4-13.2 5.1-30.2 5.1z"/><path class="j" d="m2853.9 5235.7q-20.8 0-35.8-7.4-15-7.5-23.1-20.3-8-12.9-8-29.2 0-12.4 5.2-22 5.3-9.7 14.6-18 9.4-8.2 21.8-16.6l33.3-23.1q8.4-5.4 13.2-11.5 4.7-6.2 4.7-15.2 0-7.1-6.2-13.7-6.3-6.5-16.8-6.5-7.3 0-12.8 3.4-5.5 3.5-8.6 9-3 5.3-3 11.3 0 6.9 3.8 14 4 7 10.1 14.6 6.2 7.4 12.9 15.5l96 112.8h-34.1l-79.4-91.8q-10-11.6-18.6-21.8-8.6-10.4-13.9-20.9-5.3-10.6-5.3-22.9 0-14 6.5-24.8 6.5-11 18.3-17.1 11.7-6.1 27.4-6.1 16 0 27.4 6.1 11.5 6.1 17.6 16.2 6.3 10 6.3 21.9 0 14.5-7.4 25.6-7.3 11-20.1 20.3l-41.5 30.1q-12.1 8.7-16.8 17.2-4.7 8.5-4.7 13.2 0 8.8 4.6 16.2 4.6 7.4 12.9 11.9 8.4 4.5 19.6 4.5 11.5 0 22.4-4.9 11-4.9 19.9-14.2 9-9.2 14.2-22.1 5.3-12.9 5.3-28.9h27.2q0 19.7-4.5 33.3-4.6 13.5-11 22-6.4 8.4-12 13.2-1.9 1.6-3.5 3.2-1.6 1.6-3.4 3.1-10.5 10.5-25.4 15.4-14.9 5-29.3 5z"/><path class="k" d="m3146.5 5082.9q-1.6-14.1-13.3-21.8-11.7-7.8-29.5-7.8-12.7 0-22 3.9-9.3 3.9-14.4 10.7-5.1 6.8-5.1 15.4 0 7.3 3.5 12.5 3.5 5.3 9.2 8.9 5.7 3.4 12.3 5.8 6.5 2.3 12.6 3.8l20.2 5.2q9.9 2.3 20.3 6.4 10.4 4.1 19.2 10.7 8.9 6.7 14.4 16.5 5.5 9.8 5.5 23.5 0 17.3-9 30.7-9 13.4-26.2 21.2-17.1 7.7-41.3 7.7-23.2 0-40.2-7.2-16.9-7.3-26.5-20.6-9.6-13.4-10.6-31.8h31.3q0.9 11.1 7.3 18.4 6.4 7.2 16.4 10.8 10.1 3.5 22.1 3.5 13.2 0 23.5-4.1 10.4-4.1 16.4-11.5 5.9-7.4 5.9-17.4 0-9-5.2-14.8-5.2-5.7-14-9.5-8.8-3.7-19.9-6.6l-24.5-6.6q-24.8-6.6-39.3-19.5-14.5-12.9-14.4-34.2 0-17.6 9.6-30.7 9.7-13.1 26.3-20.3 16.5-7.3 37.3-7.3 21 0 37.1 7.2 16.1 7.2 25.4 20 9.3 12.6 9.7 28.9z"/><path class="k" d="m3269.7 5235.9q-22.9 0-39.4-9.6-16.5-9.7-25.5-27.3-8.8-17.7-8.8-41.4 0-23.4 8.8-41.3 9-17.9 25.1-27.9 16.1-10 37.7-10 13.1 0 25.5 4.2 12.3 4.3 22 13.4 9.8 9.2 15.5 23.8 5.7 14.5 5.7 35.2v10.5h-123.3v-22.2h93.7q0-11.7-4.9-20.8-4.8-9.1-13.6-14.4-8.7-5.2-20.4-5.2-12.7 0-22.2 6.1-9.4 6.1-14.5 15.9-5.1 9.8-5.1 21.2v17.3q0 15.3 5.5 26 5.5 10.8 15.4 16.4 9.9 5.6 23.1 5.6 8.6 0 15.7-2.4 7-2.5 12.2-7.4 5.1-4.8 7.9-12l28.5 5.1q-3.4 12.4-12.3 21.7-8.8 9.3-22.1 14.4-13.2 5.1-30.2 5.1z"/><path class="k" d="m3423.7 5235.9q-22.5 0-38.8-10-16.1-10.1-24.8-27.9-8.7-17.8-8.7-40.7 0-23.2 8.9-41 8.9-17.9 25-27.9 16.2-10 38.1-10 17.6 0 31.5 6.4 13.8 6.4 22.3 17.9 8.5 11.5 10.2 26.9h-29.4q-2.4-10.7-11.1-18.5-8.6-7.7-23-7.7-12.6 0-22.1 6.5-9.4 6.5-14.7 18.5-5.2 11.9-5.2 28.2 0 16.7 5.1 28.8 5.2 12.1 14.6 18.7 9.5 6.7 22.3 6.7 8.6 0 15.5-3.1 7.1-3.2 11.8-9 4.9-5.9 6.8-14.1h29.4q-1.6 14.8-9.8 26.4-8.2 11.6-21.9 18.3-13.7 6.6-32 6.6z"/><path class="k" d="m3606.5 5169.6v-89.3h30.3v152.5h-29.7v-26.4h-1.6q-5.4 12.2-17.2 20.4-11.7 8-29.2 8-14.9 0-26.4-6.4-11.4-6.6-18-19.4-6.4-12.8-6.4-31.7v-97h30.2v93.5q0 15.5 8.7 24.8 8.8 9.2 22.9 9.2 8.4 0 16.8-4.2 8.5-4.1 14-12.6 5.7-8.4 5.6-21.4z"/><path class="k" d="m3666 5232.8v-152.4h29.1v24.2h1.6q4.3-12.3 15-19.4 10.8-7.1 24.4-7.1 2.8 0 6.7 0.2 3.9 0.2 6.1 0.5v28.3q-1.8-0.4-6.4-1-4.7-0.7-9.3-0.7-10.7 0-19.1 4.4-8.3 4.4-13.1 12.2-4.9 7.8-4.9 17.7v93.1z"/><path class="k" d="m3763.7 5232.8v-152.4h30.2v152.4zm15.2-176q-7.9 0-13.5-5.1-5.6-5.3-5.6-12.5 0-7.4 5.6-12.5 5.6-5.3 13.5-5.3 7.9 0 13.4 5.3 5.7 5.1 5.7 12.5 0 7.2-5.7 12.5-5.5 5.1-13.4 5.1z"/><path class="k" d="m3895.5 5080.4v23.8h-84.7v-23.8zm-62-36.6h30.2v144.3q0 8.6 2.6 13 2.6 4.2 6.8 5.8 4.2 1.5 9.1 1.5 3.7 0 6.4-0.5 2.7-0.5 4.2-0.8l5.5 24.5q-2.6 1-7.5 2-4.8 1.1-12.1 1.2-11.9 0.2-22.2-4.2-10.3-4.3-16.6-13.5-6.4-9.1-6.4-22.9z"/><path class="k" d="m3936.5 5290q-6.7 0-12.3-1.1-5.5-1-8.2-2.2l7.2-24.3q8.3 2.2 14.8 1.9 6.4-0.3 11.4-4.8 5-4.4 8.8-14.6l3.8-10.1-56.7-154.4h32.3l39.2 118.3h1.6l39.3-118.3h32.4l-63.9 172.8q-4.4 11.9-11.3 20.1-6.9 8.4-16.3 12.5-9.5 4.2-22.1 4.2z"/><path class="l" d="m4150.8 5232.8h-33.1l74.4-203.3h36.1l74.3 203.3h-33.1l-58.4-166.3h-1.6zm5.5-79.7h107.4v25.9h-107.4z"/><path class="l" d="m4391.6 5080.4v23.8h-87.7v-23.8zm-63.5 152.4v-170.1q0-14.3 6.3-23.7 6.4-9.6 16.9-14.2 10.5-4.8 22.8-4.8 9.1 0 15.5 1.5 6.5 1.4 9.6 2.6l-7 24q-2.2-0.6-5.5-1.4-3.3-0.9-8.1-0.9-11 0-15.7 5.4-4.7 5.3-4.7 15.5v166.1z"/><path class="l" d="m4411.3 5232.8v-152.4h29.2v24.2h1.6q4.3-12.3 15-19.4 10.8-7.1 24.4-7.1 2.8 0 6.6 0.2 4 0.2 6.2 0.5v28.3q-1.8-0.4-6.5-1-4.6-0.7-9.2-0.7-10.7 0-19.1 4.4-8.3 4.4-13.1 12.2-4.9 7.8-4.9 17.7v93.1z"/><path class="l" d="m4509 5232.8v-152.4h30.2v152.4zm15.3-176q-7.9 0-13.5-5.1-5.6-5.3-5.6-12.5 0-7.4 5.6-12.5 5.6-5.3 13.5-5.3 7.8 0 13.4 5.3 5.7 5.1 5.7 12.5 0 7.2-5.7 12.5-5.6 5.1-13.4 5.1z"/><path class="l" d="m4633.8 5235.9q-22.5 0-38.8-10-16.1-10.1-24.8-27.9-8.7-17.8-8.7-40.7 0-23.2 8.9-41 8.9-17.9 25-27.9 16.2-10 38.1-10 17.6 0 31.5 6.4 13.8 6.4 22.3 17.9 8.6 11.5 10.2 26.9h-29.4q-2.4-10.7-11.1-18.5-8.6-7.7-23-7.7-12.6 0-22.1 6.5-9.4 6.5-14.7 18.5-5.2 11.9-5.2 28.2 0 16.7 5.1 28.8 5.2 12.1 14.6 18.7 9.5 6.7 22.3 6.7 8.5 0 15.5-3.1 7.1-3.2 11.8-9 4.9-5.9 6.8-14.1h29.4q-1.6 14.8-9.8 26.4-8.2 11.6-21.9 18.3-13.7 6.6-32 6.6z"/><path class="l" d="m4763.5 5236.2q-14.8 0-26.7-5.4-11.9-5.4-18.8-15.7-6.9-10.4-6.9-25.4 0-12.9 5-21.2 5.1-8.3 13.7-13.2 8.6-4.9 19.1-7.4 10.7-2.4 21.7-3.7 13.9-1.6 22.6-2.6 8.6-1.1 12.6-3.5 3.9-2.4 3.9-7.7v-0.7q0-13-7.5-20.2-7.3-7.1-22-7.1-15.2 0-24 6.6-8.7 6.6-12 14.6l-28.4-6.3q5.1-13.9 14.8-22.4 9.8-8.7 22.5-12.6 12.7-3.9 26.7-3.9 9.3 0 19.7 2.2 10.5 2 19.6 7.7 9.2 5.7 15.1 16.2 5.8 10.4 5.8 27.1v101.2h-29.5v-20.8h-1.2q-2.9 5.7-8.8 11.3-5.8 5.6-15 9.2-9.2 3.7-22 3.7zm6.6-23.8q12.5 0 21.3-4.9 9-4.9 13.7-12.7 4.7-7.9 4.7-17v-19.6q-1.6 1.6-6.2 2.9-4.6 1.3-10.4 2.3-5.9 0.9-11.4 1.7-5.6 0.7-9.3 1.2-8.8 1.1-16.1 3.7-7.1 2.6-11.5 7.4-4.2 4.8-4.2 12.7 0 11.1 8.2 16.7 8.3 5.6 21.2 5.6z"/></g></svg>