<?xml version="1.0" encoding="UTF-8"?>
<svg id="Layer_2" data-name="Layer 2" xmlns="http://www.w3.org/2000/svg" viewBox="0 0 885.54 1023.24">
  <defs>
    <style>
      .cls-1 {
        fill: #d78941;
      }

      .cls-2 {
        fill: #d78940;
      }

      .cls-3 {
        fill: #d9d9c4;
      }

      .cls-4 {
        fill: #dbdcc6;
      }

      .cls-5 {
        fill: #dadbc5;
      }

      .cls-6 {
        fill: #fedfb4;
      }

      .cls-7 {
        fill: #613639;
      }

      .cls-8 {
        fill: #603438;
      }

      .cls-9 {
        fill: #fee0b5;
      }

      .cls-10 {
        fill: #5b3034;
      }

      .cls-11 {
        fill: #dadcc5;
      }

      .cls-12 {
        fill: #fedfb3;
      }

      .cls-13 {
        fill: #dddcc6;
      }

      .cls-14 {
        fill: #fceec9;
      }

      .cls-15 {
        fill: #65393d;
      }

      .cls-16 {
        fill: #ffe0b3;
      }

      .cls-17 {
        fill: #dadbc4;
      }

      .cls-18 {
        fill: #613538;
      }
    </style>
  </defs>
  <g id="Layer_1-2" data-name="Layer 1">
    <g>
      <path class="cls-2" d="m270.98,0c12.78,12.87,25.53,25.78,38.34,38.62,19.75,19.8,39.55,39.56,59.32,59.33q4.95,4.96-.17,10.08c-18.46,18.47-36.97,36.9-55.37,55.44-13.36,13.45-26.64,26.98-39.81,40.63-2.75,2.85-4.5,3.35-7.58.25-32.27-32.47-64.65-64.83-97.13-97.1-3.21-3.19-3.4-5.16-.08-8.45,21.29-21.08,42.45-42.3,63.52-63.61C243.48,23.6,254.67,11.74,265.98,0c1.67,0,3.33,0,5,0Zm37.04,103.72c-.25-.69-.28-1.08-.49-1.29-12.07-12.15-24.17-24.28-36.22-36.44-2.58-2.6-4.07-.55-5.71,1.12-4.3,4.38-8.57,8.8-12.9,13.16-6.55,6.61-13.12,13.2-19.72,19.75-2.41,2.39-2.11,4.21.32,6.59,10.82,10.58,21.56,21.25,32.12,32.1,3.06,3.14,5.11,3.09,8.14-.02,10.44-10.72,21.12-21.22,31.69-31.81,1.03-1.03,1.92-2.19,2.76-3.15Z"/>
      <path class="cls-1" d="m383.82,466.86c0-10.65.1-21.31-.06-31.96-.05-3.61,1.32-5.33,4.8-6.34,46.83-13.57,93.62-27.3,140.48-40.8,2.68-.77,6-.6,8.71.2,37.22,10.88,74.37,21.97,111.56,32.96,9.42,2.78,18.85,5.53,28.35,7.99,3.78.98,5.06,2.96,5,6.72-.38,21.96-.29,43.93-.95,65.87-1.34,44.25-9.74,86.8-30.57,126.45-15.67,29.83-37.01,54.91-62.96,75.96-15.74,12.77-32.72,23.99-49.08,36.01-3.1,2.28-5.67,2.25-9.06.32-25.88-14.7-50.05-31.75-71.35-52.57-40.83-39.91-64.22-88.66-70.84-145.14-2.94-25.05-3.67-50.37-5.4-75.56.46-.03.92-.06,1.38-.09Z"/>
      <path class="cls-7" d="m778.48,494.67c11.57,11.83,21.61,22.23,31.79,32.49,11.7,11.8,23.53,23.48,35.29,35.21.47.47.84,1.04,1.29,1.52q6.23,6.75-.12,13.2c-10.47,10.68-21.02,21.29-31.33,32.13-3.05,3.2-5.1,3.64-8.46.26-28.84-29.06-57.85-57.95-86.77-86.93-7.64-7.65-14.99-15.59-22.77-23.1-2.61-2.51-2.59-3.97-.15-6.4,9.04-9.06,17.87-18.33,26.89-27.41,20.53-20.65,41.13-41.22,61.69-61.84,4.7-4.71,9.11-9.76,14.16-14.06,2.45-2.09,6.04-3.93,9.14-3.98,23.63-.32,47.27-.2,70.9-.12,1.69,0,3.38.85,5.07,1.3-.83,1.49-1.38,3.25-2.53,4.42-24.62,25.04-49.29,50.02-73.98,74.98-8.42,8.51-16.89,16.97-25.44,25.35-1.29,1.26-3.1,1.99-4.68,2.96Z"/>
      <path class="cls-18" d="m95.48,449.51c-1.21-.92-2.19-1.51-2.98-2.29-15.5-15.31-30.94-30.68-46.46-45.97-14.46-14.25-28.94-28.48-43.56-42.56-3.21-3.09-3.41-4.94,0-8.32,29.93-29.61,59.67-59.4,89.33-89.29,3.05-3.07,4.89-3.35,8.03-.19,19.72,19.83,39.59,39.5,59.45,59.18,9.57,9.48,19.1,18.99,28.94,28.18,3.66,3.41,3.82,5.48.12,9.12-21.47,21.12-42.68,42.5-63.98,63.79-8.35,8.35-16.69,16.72-25.06,25.05-1.14,1.14-2.45,2.11-3.84,3.3Zm36.29-95.79c-.88-1.18-1.53-2.32-2.42-3.22-10.28-10.42-20.63-20.77-30.9-31.21-2.45-2.49-4.31-2.13-6.68.23-10.04,9.97-20.15,19.87-30.4,29.62-2.85,2.71-2.88,4.47,0,7.24,10.07,9.71,20.04,19.52,29.72,29.6,3.25,3.39,5.45,3.23,8.53.13,9.74-9.79,19.62-19.44,29.43-29.16.92-.91,1.69-1.99,2.72-3.22Z"/>
      <path class="cls-17" d="m628.43,914.33c-.97,1.22-1.69,2.33-2.6,3.23-31.21,30.91-62.46,61.77-93.62,92.73-2.66,2.64-4.45,2.46-6.98-.11-12.86-13.03-25.79-25.98-38.81-38.84-9.11-9-18.48-17.74-27.58-26.74-8.73-8.64-17.2-17.56-25.94-26.2-2.89-2.86-2.21-4.71.41-7.31,19.27-19.09,38.42-38.31,57.6-57.51,4.69-4.69,9.34-9.42,14-14.14,2.35-2.38,4.42-2.01,6.89.14,5.76,5.02,11.8,9.73,17.63,14.67,2.58,2.19,4.62,2.55,7.15-.27,3.78-4.2,8.12-7.9,11.88-12.12,2.79-3.12,4.68-2.94,7.59,0,21.31,21.53,42.78,42.9,64.22,64.3,1.88,1.88,3.97,3.54,5.89,5.37.8.76,1.42,1.71,2.27,2.77Zm-101.21,42.12c.93-.67,1.81-1.14,2.48-1.81,12.48-12.44,24.9-24.92,37.42-37.32,2.04-2.02,1.81-3.45-.12-5.36-12.39-12.29-24.73-24.63-37.02-37.02-1.93-1.95-3.37-2.09-5.37-.07-12.28,12.4-24.62,24.74-37.03,37.01-2.2,2.18-2,3.65.11,5.73,12.29,12.15,24.48,24.41,36.72,36.61.8.8,1.77,1.42,2.8,2.23Z"/>
      <path class="cls-7" d="m652.4,912.62c-.34-2.88-.72-4.58-.72-6.29-.04-25.13.02-50.26-.1-75.38-.02-4.3,1.35-7.54,4.41-10.6,28.5-28.45,56.92-56.99,85.3-85.56,21.91-22.07,43.75-44.2,65.56-66.38,1.49-1.52,2.4-3.61,3.58-5.44.68.42,1.35.84,2.03,1.26.36,5.32,1.03,10.63,1.01,15.95-.1,22.29-.3,44.58-.81,66.86-.06,2.79-1.55,6.19-3.52,8.2-16.5,16.91-33.28,33.54-49.94,50.3-33.89,34.09-67.76,68.21-101.65,102.31-1.36,1.37-2.83,2.63-5.16,4.79Z"/>
      <path class="cls-13" d="m853.37,340.35c-1.76.11-3.52.32-5.28.32-47.79.02-95.57.04-143.36-.03-6.11,0-12.23-.62-18.34-.75-3.71-.08-4.83-1.9-4.8-5.36.1-12.49.03-24.97.03-37.46,0-41.95,0-83.91,0-125.86,0-1.94,0-3.87,0-7.12,2.13,1.73,3.28,2.53,4.26,3.5,15.68,15.64,31.44,31.19,46.87,47.07,2.15,2.21,3.64,6.04,3.7,9.14.33,19.47.15,38.95.18,58.43,0,6.18.33,6.5,6.52,6.51,17.48.02,34.97.2,52.45-.11,5.49-.1,9.34,1.66,13.11,5.54,12.4,12.79,25.11,25.28,37.74,37.84,2.42,2.4,5.03,4.61,7.55,6.91-.2.47-.4.95-.6,1.42Z"/>
      <path class="cls-6" d="m237.92,326.37c-5.39-5.82-10.69-11.73-16.21-17.43-7.38-7.63-14.97-15.05-22.4-22.63-7.57-7.72-14.96-15.62-22.6-23.28-27.75-27.83-55.51-55.65-83.42-83.31-3.39-3.36-3.56-5.32-.05-8.69,10.81-10.38,21.37-21.02,31.81-31.77,3.05-3.15,4.98-3.09,8.08,0,34.09,33.95,68.29,67.8,102.55,101.57,3.08,3.04,4.46,6.18,4.43,10.54-.17,22.81-.08,45.62-.08,68.44,0,1.78,0,3.56,0,5.34-.7.41-1.41.82-2.11,1.23Z"/>
      <path class="cls-14" d="m375.44,345c-1.53-1.18-2.5-1.78-3.28-2.55-30.65-30.29-61.26-60.62-91.98-90.84-2.97-2.92-2.85-4.8.04-7.7,28.63-28.78,57.09-57.73,85.72-86.51,3.01-3.02,6.77-5.29,9.5-7.38v194.98Z"/>
      <path class="cls-1" d="m411.43,130.42c1.32,1.16,2.7,2.26,3.95,3.5,16.05,15.95,32.04,31.98,48.14,47.88,14.67,14.48,29.41,28.9,44.28,43.17,2.56,2.46,2.75,4.1.94,7.13-7.16,12.01-7.22,24.25,1.29,35.48,3.86,5.09,4.98,10.13,4.76,16.14-.47,12.79-.6,25.59-.88,38.39-.04,1.76-.16,3.52-.29,6.36-1.91-1.54-3.08-2.33-4.07-3.3-31.81-31.46-63.57-62.96-95.44-94.35-3.09-3.05-4.4-6.21-4.38-10.55.15-27.79.08-55.58.1-83.37,0-1.94.19-3.88.29-5.82.43-.22.87-.43,1.3-.65Z"/>
      <path class="cls-10" d="m431.14,97.66c4.35,0,7.47,0,10.6,0,17.97,0,35.95-.15,53.92.16,2.77.05,6.07,1.57,8.17,3.46,7.77,7.02,15.22,14.41,22.62,21.82,2.41,2.41,4.14,2.55,6.61.07,7.63-7.64,15.37-15.18,23.26-22.56,1.55-1.45,3.94-2.8,5.95-2.82,20.47-.2,40.94-.13,61.41-.1.93,0,1.86.31,3.76.65-1.58,1.85-2.61,3.24-3.82,4.45-29.88,29.89-59.83,59.73-89.62,89.71-3.19,3.21-5.14,3.42-8.42.08-15.6-15.89-31.43-31.54-47.2-47.26-15.05-15.01-30.11-30-45.16-45-.44-.44-.78-.99-2.08-2.66Z"/>
      <path class="cls-1" d="m648.47,131.83c.13,1.91.36,3.82.36,5.72.03,18.15.03,36.29.04,54.44,0,10.46.22,20.92-.14,31.37-.09,2.5-1.55,5.49-3.34,7.31-19.62,19.9-39.47,39.6-59.19,59.4-6.57,6.6-13.01,13.33-19.43,20.08-2.28,2.4-4.34,5-6.51,7.51-.44-.23-.87-.45-1.31-.68-.22-1.7-.63-3.39-.62-5.09.06-12.28.1-24.56.42-36.83.05-1.98,1.24-4.1,2.36-5.86,9.89-15.43,9.42-29.16-2.09-43.23-2.6-3.17-1.41-4.78.82-7.02,15.98-15.99,31.92-32.03,47.84-48.09,11.83-11.94,23.61-23.94,35.43-35.89,1.25-1.27,2.63-2.4,3.96-3.6.47.15.93.3,1.4.46Z"/>
      <path class="cls-1" d="m410.69,868.78c0-24.77.03-48.02-.03-71.28-.01-5.15-.7-10.31-.38-15.42.15-2.36,1.45-5.12,3.12-6.83,14.43-14.73,29.07-29.27,43.64-43.86,2.7-2.7,5.22-5.63,8.22-7.95,1.14-.88,3.98-1.11,5.06-.31,10.66,7.95,21.14,16.14,31.56,24.4,1.03.81,1.43,2.49,1.96,3.83.23.58,0,1.33.1,1.98,2.48,15.49-2.84,26.91-14.68,37.83-25.17,23.22-48.75,48.15-72.99,72.37-1.49,1.49-3.07,2.89-5.58,5.24Z"/>
      <path class="cls-1" d="m593.72,721.6c1.19.9,2.48,1.64,3.48,2.66,11.68,11.84,23.32,23.72,34.98,35.58,5.59,5.68,11.14,11.4,16.84,16.96,2.41,2.34,1.97,4.01-.23,6.19-14.66,14.52-29.27,29.1-43.79,43.76-2.44,2.46-4.14,2.44-6.59,0-11.07-11.01-22.4-21.76-33.35-32.89-1.87-1.9-3.23-5.14-3.31-7.8-.35-11.97-.33-23.97,0-35.94.07-2.46,1.43-5.66,3.29-7.16,8.27-6.69,16.94-12.9,25.48-19.27.92-.68,1.91-1.26,3.2-2.1Z"/>
      <path class="cls-5" d="m777.25,645.42c-31.57,30.44-63.14,60.87-94.71,91.31.23.45.47.89.7,1.34-.21-1.19-.59-2.38-.59-3.57-.03-28.47.04-56.93-.08-85.4-.02-4.37,1.64-5.79,5.9-5.77,27.8.12,55.61.06,83.41.08,1.44,0,2.89.23,4.33.35.34.55.68,1.11,1.02,1.66Z"/>
      <path class="cls-16" d="m410.61,273.48c6.66,6.15,12.96,11.75,19.02,17.61,12.57,12.14,25.01,24.41,37.5,36.63,1.93,1.89,2.8,3.68.09,5.74-14.97,11.38-15.66,32.03-2.88,44.07.33.31.47.84,1.06,1.91-6.15,3.85-12.19,7.84-18.49,11.38-1.16.65-3.69-.02-5.02-.92-9.91-6.73-19.74-13.59-29.42-20.66-1.36-.99-2.45-3.34-2.45-5.07-.14-29.47-.1-58.94-.08-88.41,0-.47.26-.94.66-2.28Z"/>
      <path class="cls-11" d="m239.48,354.75v124.65c-.41.31-.81.62-1.22.94-21.03-21.01-42.06-42.01-62.25-62.17,21.21-21.19,42.46-42.41,63.47-63.41Z"/>
      <path class="cls-7" d="m792.35,264c-9.81,0-19.62-.11-29.42.06-3.88.07-5.35-1.45-5.33-5.26.09-18.62-.05-37.24.12-55.85.07-7.23.34-7.25,7.7-7.26,18.79-.02,37.57.08,56.36-.09,4.01-.04,5.67,1.13,5.65,5.3-.08,19.45.02,38.89.13,58.34.02,3.74-1.8,4.85-5.27,4.81-9.97-.12-19.95-.04-29.92-.04Zm12.03-33.95c-.12-12.48,1.36-10.94-10.81-11.06-.17,0-.33,0-.5,0-12.84.13-11.28-1.47-11.29,11.04,0,13.2-1.6,11.51,11.26,11.51,12.97,0,11.13,1.68,11.33-11.49Z"/>
      <path class="cls-16" d="m597.84,381.21c1.22-1.33,1.94-2.2,2.75-2.98,14.51-14,13.74-32.21-1.92-44.82-5.63-4.54-5.6-4.5-.53-9.67,15.38-15.68,30.72-31.39,46.1-47.07,1.34-1.36,2.79-2.62,5.15-4.83.15,3.07.31,4.81.31,6.55.02,28.3-.07,56.59.1,84.89.03,4.74-1.56,7.52-5.68,9.97-9,5.36-17.69,11.26-26.37,17.13-3.06,2.06-5.51,2.36-8.45-.21-3.56-3.12-7.46-5.86-11.46-8.95Z"/>
      <path class="cls-9" d="m816.58,495.85c22.42-22.39,45.42-45.35,68.58-68.47.09,1.06.34,2.6.35,4.14.02,21.46.09,42.91-.09,64.37-.02,2.46-.68,5.63-2.28,7.24-9.96,9.99-20.26,19.62-30.67,29.57-12.08-12.4-24.2-24.84-35.89-36.84Z"/>
      <path class="cls-3" d="m90.85,227.81c-.86,1.15-1.52,2.29-2.42,3.19-13.04,13.07-26.16,26.07-39.15,39.19-2.8,2.83-4.88,2.44-7.5-.21-12.87-13.01-25.82-25.94-38.83-38.81-2.39-2.36-2.63-4.13-.12-6.62,13.37-13.21,26.65-26.52,39.89-39.86,2.06-2.08,3.57-2.34,5.77-.12,13.34,13.48,26.79,26.85,40.18,40.28.79.79,1.35,1.81,2.19,2.96Zm-58.9,1.74c4.05,3.82,7.8,7.51,11.77,10.94.71.61,2.79.67,3.47.08,3.51-3.01,6.93-6.17,9.98-9.63.75-.85.61-3.53-.18-4.51-2.51-3.07-5.36-5.92-8.42-8.43-.99-.81-3.66-1.02-4.51-.28-3.97,3.45-7.58,7.32-12.11,11.83Z"/>
      <path class="cls-1" d="m663.49,939.51c.11,1.44.32,2.88.32,4.32.02,24.28.03,48.56,0,72.84,0,6.22-.33,6.54-6.45,6.54-23.95.03-47.9.03-71.85.02-1.46,0-2.92-.18-5.21-1.44,27.27-27.66,54.55-55.32,81.82-82.98.45.23.91.46,1.36.69Z"/>
      <path d="m601.97,357.39c.12,5.97-2.7,9.69-7.25,12.11-4.42,2.35-8.31,1.08-11.77-2.29-5.89-5.73-13.65-6.08-21.03-6.21-19.79-.36-39.6-.47-59.38.18-5.3.17-11.03,2.58-15.6,5.47-6.51,4.11-10.55,5.18-15.32,1.41-5.27-4.17-6.9-11.54-3.76-17.54,3.35-6.41,8.74-9.06,15.94-9.03,31.11.12,62.22.06,93.33.08,3.16,0,6.33-.15,9.48.07,9.5.67,15.46,7.05,15.38,15.74Z"/>
      <path class="cls-16" d="m275.61,294.13c24.86,24.32,48.67,47.6,73.53,71.91-2.94.3-4.58.62-6.22.62-20.32.03-40.63.04-60.95.01-6.38,0-6.96-.56-6.97-6.77-.03-19.82-.02-39.63.01-59.45,0-1.58.29-3.16.59-6.34Z"/>
      <path class="cls-15" d="m513.76,745.53c5.73,3.59,10.58,6.09,14.78,9.41,3.53,2.79,6.21,2.69,9.69.17,4.24-3.07,8.81-5.67,14.02-8.97,3.35,34.12-3.26,65.06-19.78,95.23-15.21-30.47-22.05-61.28-18.71-95.83Z"/>
      <path class="cls-9" d="m765.78,616.1c-2.08.17-3.5.38-4.93.38-19.63.02-39.26-.1-58.89.07-4.71.04-6.45-1.47-6.41-6.3.19-19.46.07-38.92.08-58.38,0-1.28.23-2.55.5-5.38,23.55,23.54,46.24,46.23,69.64,69.61Z"/>
      <path class="cls-9" d="m758.55,390.23c-17.42,17.22-34.57,34.17-51.94,51.33,0-3.77-.23-8.3.06-12.79.36-5.63-1.71-9.43-6.12-13.2-9.03-7.7-17.3-16.29-26.76-25.35h84.77Z"/>
      <path class="cls-4" d="m308.99,393.22h78.05c-1.78,2.14-2.77,3.53-3.96,4.72-7.03,7.09-14,14.24-21.2,21.14-2.88,2.76-4.18,5.73-3.98,9.7.24,4.76.06,9.53.06,14.3-.51.28-1.03.56-1.54.84-16.03-16.49-32.07-32.98-48.1-49.48.23-.41.45-.81.68-1.22Z"/>
      <path d="m560.02,249.68c.02,13.31-9.97,23.26-23.4,23.32-13.41.06-24.65-10.6-24.8-23.53-.15-12.72,11.25-23.73,24.68-23.82,13.05-.09,23.51,10.6,23.53,24.04Z"/>
      <path class="cls-12" d="m650.16,668.51v71.98c-2.04-1.63-3.32-2.49-4.4-3.55-9.9-9.81-19.66-19.75-29.69-29.42-2.88-2.77-1.65-4.43.45-6.52,8.37-8.32,16.73-16.65,25.01-25.04,2.51-2.55,4.79-5.33,7.17-8,.48.19.96.37,1.45.56Z"/>
      <path class="cls-12" d="m411.12,739.45v-70.99c11.98,11.92,23.91,23.78,35.44,35.25-11.53,11.62-23.17,23.36-35.44,35.74Z"/>
      <path class="cls-8" d="m323.29,455.16c-2.73.36-3.97.66-5.21.66-12.3.04-24.6-.02-36.9.05-3.22.02-5.49-.52-5.45-4.54.12-13.13.06-26.26.09-39.39,0-.63.27-1.27.77-3.51,15.75,15.76,30.79,30.81,46.71,46.73Z"/>
      <path d="m559.96,373.91c.05,7.46-.38,7.97-6.05,6.35-12.8-3.64-25.49-4.55-38.19.34-3.49,1.34-4.83-.23-5.02-3.74-.4-7.34.56-9.23,7.99-9.47,12.11-.39,24.25,0,36.37.27,5.44.12,4.94,4.32,4.9,6.24Z"/>
      <path d="m536.75,290.2c-3.78-.4-7.66-.45-11.31-1.37-1.7-.42-3.99-2.38-4.23-3.91-.48-3.14.16-6.48.61-9.7.04-.31,2.04-.47,3.14-.48,6.91-.05,13.84.19,20.73-.17,3.04-.16,4.16.44,4.35,3.55.72,11.45.29,11.9-13.29,12.07Z"/>
      <path d="m549.78,309.63c0,3.16.31,7.09-.19,10.91-.15,1.12-2.59,2.74-3.99,2.76-7.1.07-14.21-.17-21.29-.67-1.14-.08-2.82-1.94-3.06-3.2-.52-2.72-.51-5.62-.18-8.38.12-.97,1.82-2.53,2.77-2.51,8.51.19,17.02.68,25.95,1.09Z"/>
      <path d="m549.89,292.72c0,2.84.33,6.47-.17,9.98-.18,1.26-2.33,3.13-3.63,3.17-7.27.23-14.57.2-21.82-.33-1.24-.09-2.81-2.89-3.27-4.68-.56-2.18-.4-4.68.05-6.92.2-1.01,1.87-2.49,2.83-2.47,8.39.23,16.77.76,26,1.24Z"/>
      <path d="m532.73,326.81c4.45-.4,8.93-.61,13.34-1.26,2.99-.44,3.77.7,3.96,3.42.6,8.81-.52,9.87-9.22,9.22-4.96-.37-9.96-.29-14.94-.24-5.39.06-4.79-3.81-5.09-7.27-.33-3.79,1.38-5,4.98-4.61,2.29.25,4.63.05,6.95.05l.03.69Z"/>
    </g>
  </g>
</svg>